<mxfile host="app.diagrams.net" modified="2020-03-22T06:02:10.033Z" agent="Mozilla/5.0 (Macintosh; Intel Mac OS X 10_14_6) AppleWebKit/537.36 (KHTML, like Gecko) Chrome/80.0.3987.149 Safari/537.36" etag="M9oXi3CRRdYy1x_1fb_9" version="12.8.8" type="github">
  <diagram id="fYw7saYultYE79ggZZE0" name="Page-1">
    <mxGraphModel dx="833" dy="691" grid="1" gridSize="10" guides="1" tooltips="1" connect="1" arrows="1" fold="1" page="1" pageScale="1" pageWidth="827" pageHeight="1169" math="0" shadow="0">
      <root>
        <mxCell id="0" />
        <mxCell id="1" parent="0" />
        <mxCell id="OWUdu7wImKFDbKEnJfxn-10" style="rounded=0;orthogonalLoop=1;jettySize=auto;html=1;exitX=0;exitY=0;exitDx=0;exitDy=0;entryX=1;entryY=0.5;entryDx=0;entryDy=0;" edge="1" parent="1" source="OWUdu7wImKFDbKEnJfxn-1" target="OWUdu7wImKFDbKEnJfxn-2">
          <mxGeometry relative="1" as="geometry" />
        </mxCell>
        <mxCell id="OWUdu7wImKFDbKEnJfxn-11" style="rounded=0;orthogonalLoop=1;jettySize=auto;html=1;exitX=0;exitY=1;exitDx=0;exitDy=0;entryX=1;entryY=0.5;entryDx=0;entryDy=0;" edge="1" parent="1" source="OWUdu7wImKFDbKEnJfxn-1" target="OWUdu7wImKFDbKEnJfxn-5">
          <mxGeometry relative="1" as="geometry" />
        </mxCell>
        <mxCell id="OWUdu7wImKFDbKEnJfxn-12" style="rounded=0;orthogonalLoop=1;jettySize=auto;html=1;exitX=0;exitY=0.75;exitDx=0;exitDy=0;entryX=1;entryY=0.5;entryDx=0;entryDy=0;" edge="1" parent="1" source="OWUdu7wImKFDbKEnJfxn-1" target="OWUdu7wImKFDbKEnJfxn-4">
          <mxGeometry relative="1" as="geometry" />
        </mxCell>
        <mxCell id="OWUdu7wImKFDbKEnJfxn-13" style="rounded=0;orthogonalLoop=1;jettySize=auto;html=1;exitX=0;exitY=0.25;exitDx=0;exitDy=0;entryX=1;entryY=0.5;entryDx=0;entryDy=0;" edge="1" parent="1" source="OWUdu7wImKFDbKEnJfxn-1" target="OWUdu7wImKFDbKEnJfxn-3">
          <mxGeometry relative="1" as="geometry" />
        </mxCell>
        <mxCell id="OWUdu7wImKFDbKEnJfxn-14" style="edgeStyle=none;rounded=0;orthogonalLoop=1;jettySize=auto;html=1;exitX=1;exitY=0.5;exitDx=0;exitDy=0;entryX=0;entryY=0.5;entryDx=0;entryDy=0;" edge="1" parent="1" source="OWUdu7wImKFDbKEnJfxn-1" target="OWUdu7wImKFDbKEnJfxn-7">
          <mxGeometry relative="1" as="geometry" />
        </mxCell>
        <mxCell id="OWUdu7wImKFDbKEnJfxn-15" style="edgeStyle=none;rounded=0;orthogonalLoop=1;jettySize=auto;html=1;exitX=1;exitY=0.5;exitDx=0;exitDy=0;entryX=0;entryY=0.5;entryDx=0;entryDy=0;" edge="1" parent="1" source="OWUdu7wImKFDbKEnJfxn-1" target="OWUdu7wImKFDbKEnJfxn-6">
          <mxGeometry relative="1" as="geometry" />
        </mxCell>
        <mxCell id="OWUdu7wImKFDbKEnJfxn-16" style="edgeStyle=none;rounded=0;orthogonalLoop=1;jettySize=auto;html=1;exitX=1;exitY=0.5;exitDx=0;exitDy=0;entryX=0;entryY=0.5;entryDx=0;entryDy=0;" edge="1" parent="1" source="OWUdu7wImKFDbKEnJfxn-1" target="OWUdu7wImKFDbKEnJfxn-8">
          <mxGeometry relative="1" as="geometry" />
        </mxCell>
        <mxCell id="OWUdu7wImKFDbKEnJfxn-18" style="edgeStyle=none;rounded=0;orthogonalLoop=1;jettySize=auto;html=1;exitX=0.5;exitY=1;exitDx=0;exitDy=0;entryX=0.5;entryY=0;entryDx=0;entryDy=0;" edge="1" parent="1" source="OWUdu7wImKFDbKEnJfxn-1" target="OWUdu7wImKFDbKEnJfxn-17">
          <mxGeometry relative="1" as="geometry" />
        </mxCell>
        <mxCell id="OWUdu7wImKFDbKEnJfxn-1" value="预测模型" style="shape=process;whiteSpace=wrap;html=1;backgroundOutline=1;" vertex="1" parent="1">
          <mxGeometry x="340" y="290" width="120" height="60" as="geometry" />
        </mxCell>
        <mxCell id="OWUdu7wImKFDbKEnJfxn-2" value="3H" style="shape=document;whiteSpace=wrap;html=1;boundedLbl=1;" vertex="1" parent="1">
          <mxGeometry x="100" y="140" width="120" height="80" as="geometry" />
        </mxCell>
        <mxCell id="OWUdu7wImKFDbKEnJfxn-3" value="12H" style="shape=document;whiteSpace=wrap;html=1;boundedLbl=1;" vertex="1" parent="1">
          <mxGeometry x="100" y="240" width="120" height="80" as="geometry" />
        </mxCell>
        <mxCell id="OWUdu7wImKFDbKEnJfxn-4" value="1D" style="shape=document;whiteSpace=wrap;html=1;boundedLbl=1;" vertex="1" parent="1">
          <mxGeometry x="100" y="330" width="120" height="80" as="geometry" />
        </mxCell>
        <mxCell id="OWUdu7wImKFDbKEnJfxn-5" value="3D" style="shape=document;whiteSpace=wrap;html=1;boundedLbl=1;" vertex="1" parent="1">
          <mxGeometry x="100" y="420" width="120" height="80" as="geometry" />
        </mxCell>
        <mxCell id="OWUdu7wImKFDbKEnJfxn-6" value="昨日同期数据" style="shape=document;whiteSpace=wrap;html=1;boundedLbl=1;" vertex="1" parent="1">
          <mxGeometry x="590" y="185" width="120" height="80" as="geometry" />
        </mxCell>
        <mxCell id="OWUdu7wImKFDbKEnJfxn-7" value="上周同期数据" style="shape=document;whiteSpace=wrap;html=1;boundedLbl=1;" vertex="1" parent="1">
          <mxGeometry x="590" y="280" width="120" height="80" as="geometry" />
        </mxCell>
        <mxCell id="OWUdu7wImKFDbKEnJfxn-8" value="上月同期数据" style="shape=document;whiteSpace=wrap;html=1;boundedLbl=1;" vertex="1" parent="1">
          <mxGeometry x="590" y="375" width="120" height="80" as="geometry" />
        </mxCell>
        <mxCell id="OWUdu7wImKFDbKEnJfxn-17" value="算法包" style="rounded=1;whiteSpace=wrap;html=1;" vertex="1" parent="1">
          <mxGeometry x="340" y="430" width="120" height="60" as="geometry" />
        </mxCell>
      </root>
    </mxGraphModel>
  </diagram>
</mxfile>
